<svg xmlns="http://www.w3.org/2000/svg" width="33" height="33" viewBox="0 0 33 33"><g><g><path fill="#fff" d="M10.022 23.066c-3.52-3.52-6.833-6.833-8.625-10.011-2.071-3.672-1.8-6.736.83-9.364L4.949.969a.487.487 0 0 1 .69 0l7.12 7.12a.488.488 0 0 1 .082.58l-2.078 3.768c-.004.007-.01.014-.013.022-.417.667-.53.847.412 1.788l7.66 7.662h.002c.94.94 1.119.828 1.788.412l.022-.013L24.4 20.23a.485.485 0 0 1 .58.082l7.12 7.12a.491.491 0 0 1 0 .69l-2.721 2.722c-1.556 1.556-3.171 2.218-4.835 2.218-4.526 0-9.421-4.895-14.523-9.996zM5.294 2.004L2.917 4.38C.609 6.689.396 9.293 2.247 12.575c1.727 3.063 4.993 6.329 8.45 9.787 6.925 6.923 12.893 12.89 17.993 7.79l2.377-2.376-6.516-6.515-3.434 1.895c-1.161.72-1.832.594-2.984-.557l-7.661-7.661c-1.152-1.153-1.278-1.824-.557-2.985L11.81 8.52z"/></g></g></svg>