<svg xmlns="http://www.w3.org/2000/svg" width="238" height="65" viewBox="0 0 238 65"><g><g><path fill="#ed1c24" d="M27.447 40l20.759 24.564H63.96L36.3 31.454 56.78 11.09H41.998l-20.4 20.097V11.09H10.913v45.377z"/></g><g><path fill="#ed1c24" d="M.226 11.09h10.686V.404H.226z"/></g><g><path fill="#ed1c24" d="M100.501 11.557h5.559v11.048l10.254-11.048h6.713L112.739 22.28l10.758 14.55h-6.679l-7.834-10.758-2.924 3.03v7.728h-5.559z"/></g><g><path fill="#ed1c24" d="M134.577 24.193c0-7.184 5.67-13.069 13.464-13.069 7.799 0 13.397 5.813 13.397 12.998v.071c0 7.184-5.668 13.07-13.47 13.07-7.794 0-13.391-5.813-13.391-12.999zm21.047 0c0-4.333-3.177-7.942-7.655-7.942-4.474 0-7.578 3.537-7.578 7.871v.071c0 4.333 3.178 7.943 7.65 7.943 4.479 0 7.583-3.538 7.583-7.872z"/></g><g><path fill="#ed1c24" d="M188.944 11.557c2.885 0 5.162.795 6.605 2.238 1.155 1.155 1.733 2.564 1.733 4.297v.073c0 2.851-1.517 4.438-3.322 5.45 2.925 1.12 4.731 2.818 4.731 6.212v.07c0 4.624-3.754 6.934-9.459 6.934H177.21V11.556zm2.813 7.475c0-1.661-1.3-2.6-3.645-2.6h-5.49v5.344h5.128c2.456 0 4.007-.796 4.007-2.672zm-9.135 7.363v5.56h6.61c2.454 0 3.935-.866 3.935-2.745v-.072c0-1.696-1.264-2.743-4.116-2.743z"/></g><g><path fill="#ed1c24" d="M214.101 11.557h19.061v4.946h-13.537v5.128h11.913v4.947h-11.913v5.306h13.718v4.946h-19.242z"/></g><g><path fill="#ed1c24" d="M107.074 48.387c5.12 0 8.662 3.516 8.662 8.105v.046c0 4.586-3.541 8.148-8.662 8.148h-6.357V48.387zm-2.772 3.236v9.827h2.772c2.933 0 4.913-1.978 4.913-4.867v-.045c0-2.889-1.98-4.915-4.913-4.915z"/></g><g><path fill="#ed1c24" d="M126.078 64.686h3.583V48.388h-3.583z"/></g><g><path fill="#ed1c24" d="M140.005 56.583v-.046c0-4.633 3.607-8.43 8.545-8.43 2.934 0 4.704.792 6.404 2.237l-2.26 2.723c-1.255-1.047-2.373-1.652-4.26-1.652-2.608 0-4.679 2.305-4.679 5.075v.046c0 2.982 2.047 5.17 4.936 5.17 1.303 0 2.467-.326 3.375-.978V58.4h-3.61v-3.095h7.08v7.078c-1.676 1.42-3.982 2.584-6.963 2.584-5.075 0-8.568-3.562-8.568-8.383z"/></g><g><path fill="#ed1c24" d="M166.136 64.686h3.585V48.388h-3.585z"/></g><g><path fill="#ed1c24" d="M184.58 51.693h-4.959v-3.306h13.503v3.306h-4.958v12.994h-3.587z"/></g><g><path fill="#ed1c24" d="M206.356 48.27h3.306l6.985 16.417h-3.749l-1.49-3.656h-6.893l-1.49 3.656h-3.655zm3.771 9.593l-2.166-5.284-2.164 5.284z"/></g><g><path fill="#ed1c24" d="M226.15 48.387h3.587v13.041h8.126v3.258H226.15z"/></g><g><path fill="#ed1c24" d="M77.886 11.157v53.406"/></g><g><path fill="#ed1c24" d="M76.806 64.562h2.917V11.157h-2.917z"/></g></g></svg>